<svg width="38" height="18" viewBox="0 0 38 18" fill="none" xmlns="http://www.w3.org/2000/svg">
<path fill-rule="evenodd" clip-rule="evenodd" d="M1.97871 8.53688L1.53574 8.29938L1.09277 8.50521L1.19121 8.03021L0.84668 7.68188L1.33887 7.61854L1.56856 7.19104L1.78184 7.63438L2.27403 7.72938L1.89668 8.04604L1.97871 8.53688ZM8.83653 8.52104L8.40997 8.29938L7.967 8.50521L8.06544 8.03021L7.72091 7.68188L8.21309 7.61854L8.44278 7.19104L8.65606 7.63438L9.14825 7.71354L8.77091 8.04604L8.83653 8.52104ZM7.98341 10.7377L7.55684 10.5002L7.11388 10.7219L7.21231 10.2469L6.86778 9.88271L7.35997 9.81938L7.58966 9.39188L7.80294 9.83521L8.29512 9.93021L7.91778 10.2469L7.98341 10.7377ZM22.2569 6.73188L21.8303 6.47854L21.3709 6.70021L21.4694 6.22521L21.1412 5.86104L21.6334 5.81354L21.8631 5.38604L22.06 5.82938L22.5522 5.90854L22.1912 6.24104L22.2569 6.73188ZM18.0733 6.71604L17.6303 6.47854L17.1873 6.70021L17.2858 6.22521L16.9576 5.86104L17.4498 5.81354L17.6795 5.37021L17.8764 5.82938L18.3686 5.90854L18.0076 6.24104L18.0733 6.71604ZM6.72012 5.32271L6.44122 5.16437L6.16231 5.29104L6.22794 4.99021L6.01465 4.76854L6.32637 4.73688L6.45762 4.46771L6.58887 4.75271L6.90059 4.80021L6.6709 5.00604L6.72012 5.32271ZM34.2006 12.1944L33.7741 11.9569L33.3311 12.1785L33.4295 11.7035L33.085 11.3394L33.5772 11.276L33.8069 10.8485L34.0202 11.2919L34.5123 11.3869L34.135 11.7035L34.2006 12.1944ZM30.7225 12.6535L30.3616 12.4319L29.9842 12.6219L30.0662 12.2102L29.7873 11.9252L30.1975 11.8777L30.3944 11.5135L30.5584 11.8935L30.9686 11.9569L30.6569 12.2419L30.7225 12.6535ZM32.3631 12.606L32.035 12.416L31.6905 12.5744L31.7561 12.2102L31.4936 11.941L31.8709 11.8935L32.0514 11.5769L32.2155 11.8935L32.5928 11.9727L32.3139 12.226L32.3631 12.606ZM37.0881 8.61604L36.76 8.45771L36.4319 8.61604L36.5139 8.25187L36.2514 7.98271L36.6287 7.93521L36.7928 7.61854L36.9569 7.95104L37.3014 8.01437L37.0389 8.26771L37.0881 8.61604ZM30.6733 14.886L30.2631 14.6644L29.8201 14.8544L29.9186 14.411L29.5905 14.0944L30.0826 14.0469L30.2959 13.651L30.4928 14.0627L30.985 14.1419L30.6076 14.4427L30.6733 14.886ZM30.7061 16.691L30.3123 16.4694L29.9186 16.6752L30.017 16.2319L29.7053 15.9152L30.1483 15.8519L30.3451 15.456L30.5256 15.8677L30.9686 15.9469L30.6405 16.2635L30.7061 16.691ZM27.5233 12.606L27.2116 12.416L26.8834 12.5744L26.9491 12.226L26.703 11.9569L27.0639 11.9252L27.228 11.6085L27.392 11.9252L27.753 11.9885L27.4905 12.2419L27.5233 12.606ZM24.5701 12.606L24.242 12.416L23.9139 12.5744L23.9959 12.226L23.7334 11.9569L24.1108 11.9252L24.2748 11.6085L24.4389 11.9252L24.7834 11.9885L24.5209 12.2419L24.5701 12.606ZM19.5334 8.34687L19.2053 8.17271L18.8772 8.33104L18.9592 7.96688L18.6967 7.71354L19.0576 7.66604L19.2217 7.34938L19.3858 7.66604L19.7467 7.74521L19.4842 7.98271L19.5334 8.34687ZM20.0912 17.0077L19.8287 16.8652L19.5334 17.0077L19.599 16.691L19.3858 16.4694L19.6975 16.4377L19.8451 16.1685L19.9764 16.4535L20.2881 16.501L20.0584 16.7069L20.0912 17.0077ZM12.4787 2.99521L11.8225 2.63104L11.1662 2.94771L11.3139 2.23521L10.7889 1.71271L11.5272 1.61771L11.8881 0.984375L12.1998 1.64938L12.9217 1.77604L12.3803 2.26688" fill="#FFFFEF"/>
</svg>
